<svg xmlns="http://www.w3.org/2000/svg" viewBox="0 0 298.49 34.11"><title>RR_logo_fix</title><g id="design"><polygon points="43.98 27.4 43.98 22.6 55.51 22.6 55.51 16.19 43.98 16.19 43.98 12.14 58.12 12.14 58.12 5.68 36.74 5.68 36.74 34.11 58.39 34.11 58.39 27.4 43.98 27.4"/><polygon points="63.92 5.68 63.92 12.39 73.33 12.39 73.33 34.11 80.57 34.11 80.57 12.39 89.98 12.39 89.98 5.68 63.92 5.68"/><path d="M149.74,8.61a14.89,14.89,0,0,0-5-2.58A18.22,18.22,0,0,0,134,6a14.84,14.84,0,0,0-5,2.58,14,14,0,0,0-3.75,4.51,13.51,13.51,0,0,0-1.48,6.47,13.53,13.53,0,0,0,1.48,6.48A14,14,0,0,0,129,30.58a16.08,16.08,0,0,0,5,2.65,16.79,16.79,0,0,0,10.73,0,16.19,16.19,0,0,0,5-2.65,14.13,14.13,0,0,0,3.75-4.51A13.64,13.64,0,0,0,155,19.59a13.63,13.63,0,0,0-1.47-6.47A14.13,14.13,0,0,0,149.74,8.61Zm-2.57,14.25a7.56,7.56,0,0,1-2,2.45,9,9,0,0,1-2.76,1.55,9,9,0,0,1-6.15,0,8.87,8.87,0,0,1-2.77-1.55,7.66,7.66,0,0,1-2-2.45,6.86,6.86,0,0,1-.74-3.27,6.88,6.88,0,0,1,.74-3.26,7.66,7.66,0,0,1,2-2.45,9.07,9.07,0,0,1,2.77-1.55,9,9,0,0,1,6.15,0,9,9,0,0,1,2.76,1.55,7.56,7.56,0,0,1,2,2.45,7,7,0,0,1,.73,3.26A7,7,0,0,1,147.17,22.86Z"/><rect x="191.48" y="5.68" width="7.24" height="28.42"/><path d="M264.89,13.27a15.29,15.29,0,0,0-1.12-1.78,13.36,13.36,0,0,0-2.63-2.73,16.08,16.08,0,0,0-5-2.65,16.79,16.79,0,0,0-10.73,0,16.08,16.08,0,0,0-5,2.65,14.13,14.13,0,0,0-3.75,4.51,13.64,13.64,0,0,0-1.47,6.48,13.63,13.63,0,0,0,1.47,6.47,14.13,14.13,0,0,0,3.75,4.51,14.8,14.8,0,0,0,5,2.58,18.19,18.19,0,0,0,10.67,0,14.8,14.8,0,0,0,5-2.58,14.13,14.13,0,0,0,3.75-4.51,12.38,12.38,0,0,0,1.26-3.81,16.38,16.38,0,0,0,.21-2.66,15.1,15.1,0,0,0-.58-4.3A12.3,12.3,0,0,0,264.89,13.27Zm-5.69,7.81a6.63,6.63,0,0,1-.63,1.93,7.66,7.66,0,0,1-2,2.45A9,9,0,0,1,253.84,27a9,9,0,0,1-6.15,0,8.87,8.87,0,0,1-2.77-1.55A7.73,7.73,0,0,1,243,23a7.17,7.17,0,0,1-.74-3.27,7.14,7.14,0,0,1,.74-3.27,7.66,7.66,0,0,1,2-2.45,9.07,9.07,0,0,1,2.77-1.55,9,9,0,0,1,6.15,0A9.19,9.19,0,0,1,256.61,14a7.66,7.66,0,0,1,2,2.45,7.14,7.14,0,0,1,.74,3.27A9.42,9.42,0,0,1,259.2,21.08Z"/><polygon points="291.62 5.68 291.62 21.63 277.84 5.68 271.31 5.68 271.31 34.11 278.18 34.11 278.18 17.47 292.65 34.11 298.49 34.11 298.49 5.68 291.62 5.68"/><path d="M118.47,20.34A6.52,6.52,0,0,0,120,17.8a9.91,9.91,0,0,0,.5-3.26,9.71,9.71,0,0,0-.77-4.06,7.21,7.21,0,0,0-2.27-2.82,9.41,9.41,0,0,0-3.4-1.52,17.44,17.44,0,0,0-4.16-.46H94.79V34.11H102V23.4h4.81l6.74,10.71h8L114.65,22.6A9.43,9.43,0,0,0,118.47,20.34Zm-5.36-4.51h0a1.78,1.78,0,0,1-.58.74,3.66,3.66,0,0,1-1.32.58,10.4,10.4,0,0,1-2.44.24H102v-5.3h6.74a10.4,10.4,0,0,1,2.44.24,3.66,3.66,0,0,1,1.32.58,1.84,1.84,0,0,1,.58.74,3.07,3.07,0,0,1,.19,1.09A3,3,0,0,1,113.11,15.83Z"/><path d="M183.05,20.34a6.64,6.64,0,0,0,1.57-2.54,9.91,9.91,0,0,0,.5-3.26,9.55,9.55,0,0,0-.78-4.06,7,7,0,0,0-2.27-2.82,9.29,9.29,0,0,0-3.39-1.52,17.44,17.44,0,0,0-4.16-.46H159.37V34.11h7.24V23.4h4.81l6.74,10.71h8L179.23,22.6A9.5,9.5,0,0,0,183.05,20.34Zm-5.37-4.51h0a1.83,1.83,0,0,1-.57.74,3.66,3.66,0,0,1-1.32.58,10.4,10.4,0,0,1-2.44.24h-6.74v-5.3h6.74a10.4,10.4,0,0,1,2.44.24,3.66,3.66,0,0,1,1.32.58,1.9,1.9,0,0,1,.57.74,2.86,2.86,0,0,1,.2,1.09A2.83,2.83,0,0,1,177.68,15.83Z"/><path d="M228.94,20.34a6.52,6.52,0,0,0,1.57-2.54,9.91,9.91,0,0,0,.5-3.26,9.71,9.71,0,0,0-.77-4.06A7.21,7.21,0,0,0,228,7.66a9.44,9.44,0,0,0-3.39-1.52,17.58,17.58,0,0,0-4.17-.46H205.26V34.11h7.24V23.4h4.81l6.74,10.71h8L225.12,22.6A9.43,9.43,0,0,0,228.94,20.34Zm-5.36-4.51h0a1.78,1.78,0,0,1-.58.74,3.58,3.58,0,0,1-1.32.58,10.4,10.4,0,0,1-2.44.24H212.5v-5.3h6.74a10.4,10.4,0,0,1,2.44.24,3.66,3.66,0,0,1,1.32.58,1.84,1.84,0,0,1,.58.74,3.07,3.07,0,0,1,.19,1.09A3,3,0,0,1,223.58,15.83Z"/><path d="M29.18,18.84a8.13,8.13,0,0,0,1.51-3,21,21,0,0,0,.48-4.63A15.54,15.54,0,0,0,30,5.6,10.59,10.59,0,0,0,23.7.53a14.08,14.08,0,0,0-4-.53H0V5.63H13.87A18.13,18.13,0,0,1,18,6.08a9.6,9.6,0,0,1,3.4,1.53,7.15,7.15,0,0,1,2.28,2.82,9.76,9.76,0,0,1,.77,4.07,9.93,9.93,0,0,1-.5,3.27,6.64,6.64,0,0,1-1.57,2.54,9.32,9.32,0,0,1-3.83,2.26l6.94,11.54H33L25.75,21.75A10,10,0,0,0,29.18,18.84Z"/><polygon points="10.76 23.38 5.94 23.38 5.94 34.11 17.52 34.11 10.76 23.38"/><path d="M16.46,12.87a3.58,3.58,0,0,0-1.32-.58,10.4,10.4,0,0,0-2.44-.24H5.94v5.31H12.7a10.4,10.4,0,0,0,2.44-.24,3.5,3.5,0,0,0,1.32-.58,1.8,1.8,0,0,0,.58-.75h0a2.83,2.83,0,0,0,.2-1.09,2.86,2.86,0,0,0-.2-1.09A1.84,1.84,0,0,0,16.46,12.87Z"/></g></svg>